<svg xmlns="http://www.w3.org/2000/svg" width="32" height="32"><path d="M16 0C7.164 0 0 7.164 0 16s7.164 16 16 16 16-7.164 16-16C31.992 7.168 24.832.008 16 0Zm0 29.332C8.637 29.332 2.668 23.363 2.668 16S8.637 2.668 16 2.668 29.332 8.637 29.332 16C29.324 23.36 23.359 29.324 16 29.332Zm0 0" style="stroke:none;fill-rule:nonzero;fill:#3369f3;fill-opacity:1"/><path d="M22.277 9.723a1.337 1.337 0 0 0-1.886 0L16 14.113l-4.39-4.39a1.344 1.344 0 0 0-1.297-.364 1.35 1.35 0 0 0-.954.954c-.12.464.02.96.364 1.296L14.113 16l-4.39 4.39a1.344 1.344 0 0 0-.364 1.297c.125.465.489.829.954.954.464.12.96-.02 1.296-.364L16 17.887l4.39 4.39a1.331 1.331 0 0 0 1.868-.02 1.331 1.331 0 0 0 .02-1.866L17.886 16l4.39-4.39c.52-.52.52-1.364 0-1.887Zm0 0" style="stroke:none;fill-rule:nonzero;fill:#3369f3;fill-opacity:1"/></svg>